<svg width="16" height="20" viewBox="0 0 16 20" fill="none" xmlns="http://www.w3.org/2000/svg">
<g id="Group">
<path id="Vector" d="M6 12.65V7.35L11 10L6 12.65ZM13.77 8.32C13 8 12.57 7.82 12.57 7.82L14 7.06C15.84 6.1 16.53 3.83 15.56 2C14.59 0.17 12.32 -0.529999 10.49 0.440001L2 4.94C0.709999 5.62 -0.0700012 6.98 -1.19023e-06 8.43C0.0699988 9.85 0.929999 11.1 2.22 11.68C2.25 11.69 3.42 12.18 3.42 12.18L2 12.93C0.169999 13.9 -0.530001 16.17 0.439999 18C1.41 19.83 3.68 20.53 5.51 19.56L14.01 15.06C15.3 14.38 16.07 13.02 16 11.57C15.93 10.15 15.06 8.89 13.77 8.32ZM13.54 14.18L5.04 18.68C3.7 19.39 2.03 18.88 1.32 17.54C0.609999 16.2 1.12 14.53 2.46 13.82L4.5 12.74V11.53L3.81 11.25L2.7 10.79C1.71 10.38 1.05 9.44 0.999999 8.38C0.949999 7.32 1.52 6.32 2.46 5.82L10.96 1.32C12.3 0.61 13.97 1.12 14.68 2.46C15.39 3.8 14.88 5.47 13.54 6.18L11.5 7.26V8.47L13.3 9.21C14.29 9.62 14.95 10.56 15 11.62C15.05 12.68 14.48 13.68 13.54 14.18Z" fill="white"/>
</g>
</svg>
